<svg xmlns="http://www.w3.org/2000/svg" width="100" height="99" viewBox="0 0 100 99">
    <g fill="#FFF" fill-rule="evenodd">
        <path d="M60.364 29.91h15.151c.91 0 1.515-.607 1.515-1.516 0-.91-.606-1.515-1.515-1.515H60.364c-.91 0-1.516.606-1.516 1.515 0 .909.758 1.515 1.516 1.515zM41.273 29.91h11.666c.91 0 1.516-.607 1.516-1.516 0-.91-.607-1.515-1.516-1.515H41.273c-.91 0-1.515.606-1.515 1.515 0 .909.606 1.515 1.515 1.515zM89.152 38.848H77.939c-.909 0-1.515.607-1.515 1.516s.606 1.515 1.515 1.515h11.213c.909 0 1.515-.606 1.515-1.515 0-.91-.606-1.516-1.515-1.516zM41.273 41.879h27.272c.91 0 1.516-.606 1.516-1.515 0-.91-.606-1.516-1.516-1.516H41.273c-.91 0-1.515.607-1.515 1.516 0 .757.606 1.515 1.515 1.515zM89.152 50.818H62.939c-.909 0-1.515.606-1.515 1.515 0 .91.606 1.515 1.515 1.515h26.213c.909 0 1.515-.606 1.515-1.515 0-.909-.606-1.515-1.515-1.515zM41.273 53.848h12.575c.91 0 1.516-.606 1.516-1.515 0-.909-.606-1.515-1.516-1.515H41.273c-.91 0-1.515.606-1.515 1.515 0 .758.606 1.515 1.515 1.515zM89.152 62.636H80.06c-.91 0-1.516.606-1.516 1.516 0 .909.607 1.515 1.516 1.515h9.09c.91 0 1.516-.606 1.516-1.515 0-.758-.606-1.516-1.515-1.516zM41.273 65.667H70.97c.909 0 1.515-.606 1.515-1.515 0-.91-.606-1.516-1.515-1.516H41.273c-.91 0-1.515.606-1.515 1.516 0 .909.606 1.515 1.515 1.515zM89.152 74.606H61.576c-.91 0-1.515.606-1.515 1.515 0 .91.606 1.515 1.515 1.515h27.576c.909 0 1.515-.606 1.515-1.515 0-.909-.606-1.515-1.515-1.515zM41.273 77.636h13.03c.91 0 1.515-.606 1.515-1.515 0-.909-.606-1.515-1.515-1.515h-13.03c-2.121 0-2.121 3.03 0 3.03zM89.152 86.424H77.939c-.909 0-1.515.606-1.515 1.515 0 .91.606 1.516 1.515 1.516h11.213c.909 0 1.515-.607 1.515-1.516 0-.757-.606-1.515-1.515-1.515zM70.364 86.424H41.273c-.91 0-1.515.606-1.515 1.515 0 .91.606 1.516 1.515 1.516h29.242c.91 0 1.515-.607 1.515-1.516-.151-.757-.757-1.515-1.666-1.515z"/>
        <path fill-rule="nonzero" d="M99 31.576C84.455 17.03 85.212 17.333 84.152 17.333H55.364l-6.212-15C48.545.818 46.727.061 45.212.667L1.88 18.697c-1.515.606-2.273 2.424-1.667 3.94L25.97 85.06c.909 2.272 3.788-.152 4.848-.455v12.879c0 .909.606 1.515 1.515 1.515H97.94c.91 0 1.516-.606 1.516-1.515 0-68.94.151-64.849-.152-65.303 0-.303-.151-.455-.303-.606zm-13.182-8.94l8.637 8.637h-8.637v-8.637zM28.242 82.485L3.091 21.575l43.333-18.03 5.758 13.94H32.485c-.606 0-1.212.454-1.364.909-.151.151-.151.454-.151.606v.303l-17.122 6.97c-.757.303-1.212 1.212-.757 1.97.303.757 1.212 1.212 1.97.757l15.909-6.667V29l-13.637 5.606c-.757.303-1.212 1.212-.757 1.97.303.757 1.212 1.212 1.97.757l12.424-5.151v6.666l-10.152 4.243c-.757.303-1.212 1.212-.757 1.97.303.757 1.212 1.212 1.97.757l8.939-3.636V49l-6.667 2.727c-.758.303-1.212 1.212-.758 1.97.303.758 1.213 1.212 1.97.758l5.455-2.273v6.666l-3.03 1.213c-.758.303-1.213 1.212-.758 1.97.303.757 1.212 1.211 1.97.757l1.97-.758v19.243l-2.88 1.212zM34 95.97V20.515h48.788v12.273c0 .909.606 1.515 1.515 1.515h12.273V95.97H34z"/>
    </g>
</svg>
