<svg xmlns="http://www.w3.org/2000/svg" width="89" height="100" viewBox="0 0 89 100">
    <g fill="#FFF" fill-rule="evenodd">
        <path fill-rule="nonzero" d="M1.231 29.847l15.314 9.473-4.486 2.892 1.694 2.627 5.736-3.697 24.044 14.875a1.57 1.57 0 0 0 1.67-.016l23.764-15.32 5.803 3.59 1.646-2.657-4.54-2.808 15.135-9.758a1.562 1.562 0 0 0-.025-2.642L44.683.236a1.563 1.563 0 0 0-1.669.016L1.206 27.205a1.562 1.562 0 0 0 .025 2.642zM43.878 3.413l39.36 24.348-38.899 25.078L4.98 28.491l38.9-25.078z"/>
        <path d="M45.13 48.19l4.675-3.015-1.694-2.627-3.845 2.48-3.98-2.462-1.645 2.657 4.818 2.982a1.57 1.57 0 0 0 1.67-.016zM43.952 11.225l4.132 2.558 1.646-2.658-4.974-3.078a1.563 1.563 0 0 0-1.669.015l-4.92 3.172 1.694 2.627 4.09-2.636zM1.434 51.722l6.644 4.11 1.645-2.659-4.54-2.807 4.487-2.893-1.693-2.626-6.566 4.231a1.565 1.565 0 0 0 .023 2.644zM23.702 65.494l1.645-2.659 11.159 6.904-1.645 2.659zM38.737 71.122l-1.643 2.66 6.643 4.109a1.57 1.57 0 0 0 1.67-.016l6.566-4.233-1.693-2.626-5.736 3.698-5.806-3.592zM52.484 69.594l11.029-7.109 1.694 2.628-11.03 7.11zM87.19 48.278l-6.643-4.11-1.645 2.659 4.54 2.807-4.487 2.893 1.693 2.626 6.566-4.233a1.565 1.565 0 0 0-.023-2.642z"/>
        <path d="M87.395 70.153L72.081 60.68l6.364-4.102-1.693-2.626-11.03 7.109 1.694 2.627 1.757-1.133 14.475 8.954L44.75 96.588 5.388 72.239l14.306-9.223 1.776 1.098 1.646-2.658-11.16-6.903-1.645 2.658 6.439 3.983-15.136 9.76a1.562 1.562 0 0 0 .025 2.642l42.303 26.168a1.57 1.57 0 0 0 1.67-.016L87.42 72.795c.45-.29.72-.792.716-1.328a1.566 1.566 0 0 0-.74-1.314z"/>
    </g>
</svg>
