<svg xmlns="http://www.w3.org/2000/svg" width="98" height="93" viewBox="0 0 98 93">
    <g fill="#FFF" fill-rule="nonzero">
        <path d="M85.228.148c-6.017 0-11.004 4.478-11.811 10.276H60.813C60.006 4.626 55.019.148 49 .148c-6.017 0-11.004 4.478-11.811 10.276H24.585C23.778 4.626 18.791.148 12.775.148 6.194.148.844 5.498.844 12.076c0 6.578 5.351 11.931 11.93 11.931 6.016 0 11.003-4.481 11.81-10.28H37.19c.807 5.799 5.794 10.277 11.811 10.277 6.019 0 11.006-4.478 11.813-10.276h12.602a11.854 11.854 0 0 0 2.089 5.259l-19.05 17.994a12.012 12.012 0 0 0-7.452-2.618c-6.578 0-11.928 5.354-11.928 11.931 0 2.504.774 4.9 2.204 6.908L20.228 71.2a11.99 11.99 0 0 0-7.452-2.619C6.198 68.581.848 73.935.848 80.51c0 6.58 5.352 11.932 11.928 11.932 6.018 0 11.005-4.482 11.813-10.28h12.604c.803 5.802 5.79 10.283 11.807 10.283 6.019 0 11.006-4.481 11.813-10.28h12.604c.807 5.799 5.794 10.28 11.81 10.28 6.58 0 11.929-5.353 11.929-11.931 0-6.576-5.35-11.928-11.928-11.928-6.017 0-11.004 4.478-11.811 10.276H60.813C60.006 73.063 55.019 68.585 49 68.585c-6.017 0-11.004 4.478-11.811 10.276h-12.6a11.847 11.847 0 0 0-2.09-5.255l19.05-17.999a11.988 11.988 0 0 0 7.45 2.619c6.579 0 11.929-5.354 11.929-11.928 0-2.504-.774-4.904-2.204-6.911l19.05-17.994a12.007 12.007 0 0 0 7.45 2.614c6.58 0 11.928-5.35 11.928-11.927 0-6.578-5.346-11.932-11.924-11.932zM12.774 20.7c-4.755 0-8.624-3.867-8.624-8.622 0-4.752 3.869-8.622 8.624-8.622 4.752 0 8.619 3.866 8.622 8.618l-.002.004c0 .003.002.003.002.007-.002 4.752-3.868 8.615-8.622 8.615zM49 20.7c-4.754 0-8.622-3.867-8.622-8.622 0-4.752 3.868-8.622 8.622-8.622 4.756 0 8.622 3.87 8.622 8.622 0 4.755-3.866 8.622-8.622 8.622zM12.774 89.135c-4.754 0-8.622-3.866-8.622-8.622 0-4.752 3.868-8.622 8.622-8.622 2.398 0 4.624.963 6.27 2.702a8.595 8.595 0 0 1 2.354 5.92c-.002 4.756-3.87 8.622-8.624 8.622zM85.228 71.89c4.755 0 8.622 3.87 8.622 8.622 0 4.756-3.867 8.622-8.622 8.622-4.752 0-8.62-3.866-8.62-8.622-.002-4.752 3.866-8.622 8.62-8.622zm-36.228 0c4.756 0 8.622 3.87 8.622 8.622 0 4.756-3.866 8.622-8.622 8.622-4.754 0-8.622-3.866-8.622-8.622 0-4.752 3.868-8.622 8.622-8.622zm0-16.97a8.557 8.557 0 0 1-6.269-2.702 8.595 8.595 0 0 1-2.353-5.92c0-4.756 3.868-8.623 8.622-8.623 2.398 0 4.624.96 6.27 2.702a8.588 8.588 0 0 1 2.354 5.92c-.002 4.752-3.868 8.623-8.624 8.623zM85.228 20.7c-2.397 0-4.62-.96-6.269-2.702h-.002a8.586 8.586 0 0 1-2.351-5.92c0-4.752 3.868-8.622 8.62-8.622 4.755 0 8.622 3.87 8.622 8.622.002 4.755-3.865 8.622-8.62 8.622z"/>
        <path d="M12.774 58.224c6.578 0 11.928-5.354 11.928-11.928 0-6.58-5.352-11.931-11.928-11.931-6.58 0-11.93 5.354-11.93 11.931 0 6.576 5.352 11.928 11.93 11.928zm0-20.55c4.754 0 8.622 3.867 8.622 8.622 0 4.752-3.868 8.623-8.622 8.623-4.755 0-8.624-3.87-8.624-8.623 0-4.755 3.869-8.622 8.624-8.622zM85.228 34.365c-6.578 0-11.928 5.354-11.928 11.931 0 6.576 5.352 11.928 11.928 11.928 6.58 0 11.928-5.354 11.928-11.928 0-6.58-5.35-11.931-11.928-11.931zm0 20.554c-4.754 0-8.622-3.87-8.622-8.623 0-4.755 3.868-8.622 8.622-8.622 4.755 0 8.622 3.867 8.622 8.622 0 4.752-3.867 8.623-8.622 8.623z"/>
    </g>
</svg>
