<svg xmlns="http://www.w3.org/2000/svg" width="100" height="100" viewBox="0 0 100 100">
    <g fill="#FFF" fill-rule="evenodd">
        <path fill-rule="nonzero" d="M98.676 41.092l-14.186-1.8a35.922 35.922 0 0 0-2.482-6.17l8.709-11.242a1.514 1.514 0 0 0-.126-1.999L80.12 9.41a1.517 1.517 0 0 0-2-.126l-11.151 8.64a35.896 35.896 0 0 0-6.286-2.621L58.909 1.324A1.515 1.515 0 0 0 57.406 0H42.594c-.763 0-1.407.567-1.503 1.324l-1.774 13.978a35.896 35.896 0 0 0-6.286 2.62L21.88 9.282a1.515 1.515 0 0 0-1.999.127L9.41 19.881a1.514 1.514 0 0 0-.126 2l8.71 11.241a35.922 35.922 0 0 0-2.483 6.17l-14.186 1.8A1.515 1.515 0 0 0 0 42.595v14.81c0 .763.567 1.407 1.324 1.503l14.354 1.822a35.91 35.91 0 0 0 2.5 5.909L9.281 78.12a1.516 1.516 0 0 0 .127 1.999L19.88 90.59c.542.54 1.399.595 2 .126l11.573-8.965a35.899 35.899 0 0 0 5.79 2.361l1.848 14.563c.096.757.74 1.324 1.503 1.324h14.812c.763 0 1.407-.567 1.503-1.324l1.848-14.563a35.899 35.899 0 0 0 5.79-2.361l11.574 8.965c.6.469 1.457.413 1.999-.126L90.59 80.12c.54-.54.593-1.396.127-2L81.823 66.64a35.91 35.91 0 0 0 2.499-5.909l14.354-1.822A1.515 1.515 0 0 0 100 57.405v-14.81c0-.763-.567-1.407-1.324-1.503zM96.97 56.07l-14.002 1.777c-.6.076-1.097.501-1.264 1.081A32.953 32.953 0 0 1 78.7 66.03a1.514 1.514 0 0 0 .118 1.678l8.687 11.213-8.583 8.583-11.294-8.749a1.52 1.52 0 0 0-1.662-.128 32.861 32.861 0 0 1-6.998 2.856 1.516 1.516 0 0 0-1.092 1.267L56.07 96.97H43.929l-1.804-14.22a1.516 1.516 0 0 0-1.092-1.267 32.861 32.861 0 0 1-6.998-2.856 1.513 1.513 0 0 0-1.662.128l-11.294 8.75-8.583-8.584 8.687-11.213a1.514 1.514 0 0 0 .118-1.678 32.953 32.953 0 0 1-3.005-7.102 1.513 1.513 0 0 0-1.264-1.08L3.03 56.07V43.93l13.853-1.757a1.515 1.515 0 0 0 1.27-1.107 32.9 32.9 0 0 1 2.963-7.358 1.515 1.515 0 0 0-.127-1.664L12.496 21.08l8.583-8.584 10.884 8.432a1.513 1.513 0 0 0 1.68.118 32.868 32.868 0 0 1 7.461-3.112 1.516 1.516 0 0 0 1.095-1.268L43.93 3.03h12.142l1.73 13.636a1.516 1.516 0 0 0 1.095 1.268c2.62.732 5.131 1.78 7.461 3.112a1.513 1.513 0 0 0 1.68-.118l10.884-8.432 8.583 8.584-8.493 10.964a1.515 1.515 0 0 0-.127 1.664 32.9 32.9 0 0 1 2.962 7.358c.16.593.663 1.029 1.271 1.107L96.97 43.93v12.14z"/>
        <path fill-rule="nonzero" d="M50 24.922c-13.829 0-25.078 11.25-25.078 25.078S36.172 75.078 50 75.078c13.829 0 25.078-11.25 25.078-25.078S63.828 24.922 50 24.922zm0 47.126c-12.157 0-22.048-9.89-22.048-22.048 0-12.157 9.891-22.048 22.048-22.048 12.157 0 22.048 9.89 22.048 22.048 0 12.157-9.891 22.048-22.048 22.048z"/>
        <path d="M58.548 42.212a1.515 1.515 0 1 0-2.143 2.142L62.052 50l-5.647 5.646a1.515 1.515 0 1 0 2.143 2.142l6.717-6.717a1.515 1.515 0 0 0 0-2.142l-6.717-6.717zM43.595 42.212a1.515 1.515 0 0 0-2.143 0l-6.717 6.717a1.515 1.515 0 0 0 0 2.142l6.717 6.717a1.51 1.51 0 0 0 1.071.444 1.515 1.515 0 0 0 1.071-2.586L37.949 50l5.647-5.646a1.515 1.515 0 0 0 0-2.142zM53.525 35.968a1.519 1.519 0 0 0-1.838 1.1l-6.312 25.126a1.514 1.514 0 1 0 2.938.738l6.312-25.126a1.514 1.514 0 0 0-1.1-1.838z"/>
    </g>
</svg>
