<svg xmlns="http://www.w3.org/2000/svg" width="100" height="100" viewBox="0 0 100 100">
    <g fill="#FFF" fill-rule="evenodd">
        <path fill-rule="nonzero" d="M98.913 52.609H46.304c-.652 0-1.087.434-1.087 1.087v37.391c0 .652.435 1.087 1.087 1.087h25.218v5.543h-6.848c-.652 0-1.087.435-1.087 1.087 0 .653.435 1.087 1.087 1.087h15.76c.653 0 1.088-.434 1.088-1.087 0-.652-.435-1.087-1.087-1.087h-6.74v-5.543h25.218c.652 0 1.087-.435 1.087-1.087V53.696c0-.544-.543-1.087-1.087-1.087zm-1.087 2.174v28.37H47.391v-28.37h50.435zM47.391 90v-4.565h50.435V90H47.391z"/>
        <circle cx="17.935" cy="54.565" r="1.739"/>
        <path fill-rule="nonzero" d="M35.76 58.696v-57.5c0-.653-.434-1.087-1.086-1.087H1.087C.435.109 0 .543 0 1.196v57.5c0 .652.435 1.087 1.087 1.087h33.478c.652 0 1.196-.435 1.196-1.087zM33.588 2.283v46.956H2.174V2.283h31.413zM2.174 57.609v-6.196h31.304v6.196H2.174z"/>
        <path d="M42.935 78.913H21.413V63.261c0-.652-.435-1.087-1.087-1.087-.652 0-1.087.435-1.087 1.087V80c0 .652.435 1.087 1.087 1.087h22.609c.652 0 1.087-.435 1.087-1.087a1.09 1.09 0 0 0-1.087-1.087zM39.457 20.543h15.652v28.37c0 .652.434 1.087 1.087 1.087.652 0 1.087-.435 1.087-1.087V19.457c0-.653-.435-1.087-1.087-1.087h-16.74c-.652 0-1.086.434-1.086 1.087 0 .652.434 1.086 1.087 1.086z"/>
    </g>
</svg>
