<svg xmlns="http://www.w3.org/2000/svg" width="100" height="100" viewBox="0 0 100 100">
    <g fill="#FFF" fill-rule="evenodd">
        <path fill-rule="nonzero" d="M100 18.75v-4.688C100 6.329 93.672 0 85.937 0h-7.812c-7.734 0-14.063 6.328-14.063 14.063v4.53c0-6.796-5.624-12.343-12.5-12.343-6.874 0-12.5 5.547-12.5 12.344v2.11c-2.03-2.11-5-3.517-8.203-3.517-6.25 0-11.328 5-11.328 11.25v5.547c-2.031-2.109-5-3.437-8.203-3.437C5.078 30.469 0 35.469 0 41.64V72.5c0 6.172 5.078 11.094 11.328 11.094 3.985 0 7.5-2.031 9.531-5.156 1.875 3.515 5.703 5.937 10 5.937 4.141 0 7.813-2.266 9.766-5.547 2.11 3.75 6.25 6.328 10.938 6.328 2.109 0 4.14-.547 5.937-1.484-.469 1.719-.625 3.594-.234 5.547.547 3.437 2.422 6.406 5.312 8.437A12.624 12.624 0 0 0 69.922 100c.703 0 1.484-.078 2.187-.156l17.188-2.969c6.797-1.172 11.406-7.5 10.625-14.297v-.469c.156-4.453.312-7.656-1.797-12.578-.625-1.562-1.484-2.89-2.188-4.219-1.328-2.265-2.5-4.218-2.734-7.109-.469-7.5-.156-19.062.234-27.656A13.887 13.887 0 0 0 100 18.75zm-32.813-4.688c0-6.015 4.922-10.937 10.938-10.937h7.813c6.015 0 10.937 4.922 10.937 10.938v4.687c0 4.063-2.266 7.656-5.625 9.531-.078 0-.156.078-.156.078a10.552 10.552 0 0 1-5.156 1.328h-7.813c-6.016 0-10.938-4.921-10.938-10.937v-4.688zM11.328 80.47c-4.531 0-8.203-3.594-8.203-7.969V41.64c0-4.453 3.672-8.046 8.203-8.046 4.531 0 8.203 3.593 8.203 8.047V72.5c0 4.375-3.672 7.969-8.203 7.969zm27.735-7.266c0 4.453-3.672 8.047-8.204 8.047-4.53 0-8.203-3.594-8.203-8.047V28.437c0-4.53 3.672-8.125 8.203-8.125 4.532 0 8.203 3.594 8.203 8.125v44.766zm3.124-.39V18.594c0-5.078 4.22-9.219 9.376-9.219s9.374 4.14 9.374 9.219v54.218c0 5.079-4.218 9.22-9.374 9.22-5.157 0-9.376-4.141-9.376-9.22zM88.75 93.75l-17.188 2.969c-2.578.469-5.078-.156-7.265-1.64-2.11-1.485-3.594-3.829-3.984-6.407-.938-5.39 2.656-10.469 7.968-11.328l17.188-2.969c.547-.078 1.094-.156 1.64-.156 1.954 0 3.907.625 5.547 1.797 2.11 1.484 3.594 3.828 3.985 6.406v.312c0 .547 0 1.094-.079 1.641 0 .234 0 .39.079.625-.235 4.297-3.438 8.047-7.891 8.75zm1.328-35.313c.234 3.594 1.719 6.094 3.125 8.516.703 1.172 1.406 2.422 2.031 3.828.704 1.719 1.094 3.125 1.329 4.531a12.077 12.077 0 0 0-2.11-1.874c-2.812-1.954-6.172-2.735-9.61-2.188l-17.187 2.969c-1.484.234-2.812.781-4.062 1.406.234-.938.312-1.875.312-2.813V18.75c0 7.734 6.328 14.063 14.063 14.063h7.812c1.485 0 2.969-.235 4.297-.704-.234 8.516-.469 19.22 0 26.328z"/>
        <path fill-rule="nonzero" d="M74.61 84.844c-.235-1.25-.86-2.344-1.876-3.047-1.015-.703-2.265-.938-3.515-.703l-1.797.39c-2.5.547-4.14 2.97-3.75 5.547l.469 3.047c.234 1.25.859 2.344 1.875 3.047.78.547 1.64.781 2.5.781.312 0 .625 0 1.015-.078l1.797-.39c2.5-.547 4.14-2.97 3.75-5.547l-.469-3.047zm-3.985 5.547l-1.797.39c-.39.078-.781 0-1.094-.234-.312-.234-.546-.547-.546-.938l-.47-3.046c-.156-.86.47-1.797 1.329-1.954l1.797-.39h.312c.313 0 .547.078.781.234.313.234.547.547.547.938l.47 3.046c.155.86-.47 1.797-1.329 1.954z"/>
        <path d="M77.031 46.875c-5.86 0-9.14 2.578-9.219 2.734-.703.547-.78 1.563-.234 2.188.313.39.781.547 1.172.547.313 0 .703-.078 1.016-.39 0 0 2.578-1.954 7.265-1.954 4.688 0 7.031 1.875 7.11 1.953.625.547 1.64.469 2.187-.156.547-.625.469-1.64-.156-2.188-.156-.156-3.281-2.734-9.14-2.734z"/>
    </g>
</svg>
