<svg xmlns="http://www.w3.org/2000/svg" width="54" height="64" viewBox="0 0 54 64">
    <defs>
        <linearGradient id="a" x1="0%" y1="50%" y2="50%">
            <stop offset="0%" stop-color="#3CA4E7"/>
            <stop offset="100%" stop-color="#3C71DD"/>
        </linearGradient>
    </defs>
    <path fill="url(#a)" fill-rule="nonzero" d="M24.189 89.904l.563-4.654C23.334 83.446 19.75 81.916 14 80.661V66.776h5.317c24.182 0 36.273-8.904 36.273-26.712 0-2.104-.126-4.068-.378-5.895C62.982 40.047 68 49.348 68 59.816 68 77.59 53.532 92 35.685 92c-4.05 0-7.924-.742-11.496-2.096zM14 35.953A32.257 32.257 0 0 1 30.778 28c1.03.36 1.955.792 2.776 1.296 2.875 1.766 4.313 5.256 4.313 10.473 0 5.217-1.32 8.885-3.958 11.003-2.639 2.118-6.636 3.177-11.993 3.177H14V35.953z" transform="translate(-14 -28)"/>
</svg>
