<svg xmlns="http://www.w3.org/2000/svg" width="64" height="64" viewBox="0 0 64 64">
    <defs>
        <linearGradient id="a" x1="0%" y1="50%" y2="50%">
            <stop offset="0%" stop-color="#3CA4E7"/>
            <stop offset="100%" stop-color="#3C71DD"/>
        </linearGradient>
    </defs>
    <g fill="none" fill-rule="nonzero">
        <circle cx="31.5" cy="31.5" r="31.5" fill="#FFF"/>
        <path fill="url(#a)" d="M20.189 61.904l.563-4.654C19.334 55.446 15.75 53.916 10 52.661V38.776h5.317c24.182 0 36.273-8.904 36.273-26.712 0-2.104-.126-4.068-.378-5.895C58.982 12.047 64 21.348 64 31.816 64 49.59 49.532 64 31.685 64c-4.05 0-7.924-.742-11.496-2.096zM10 7.953A32.257 32.257 0 0 1 26.778 0c1.03.36 1.955.792 2.776 1.296 2.875 1.766 4.313 5.256 4.313 10.473 0 5.217-1.32 8.885-3.958 11.003-2.639 2.118-6.636 3.177-11.993 3.177H10V7.953z"/>
    </g>
</svg>
