<?xml version="1.0" encoding="utf-8"?>
<!-- Generator: Adobe Illustrator 24.0.2, SVG Export Plug-In . SVG Version: 6.00 Build 0)  -->
<svg version="1.1" id="Ebene_1" xmlns="http://www.w3.org/2000/svg" xmlns:xlink="http://www.w3.org/1999/xlink" x="0px" y="0px"
	 viewBox="0 0 194 185" style="enable-background:new 0 0 194 185;" xml:space="preserve">
<style type="text/css">
	.st0{fill:#C0A32A;}
</style>
<g>
	<path class="st0" d="M58.1,116.9c0,2.9,0.3,5,0.3,6.2c0,2.8-0.9,3.9-3.4,3.9c-0.5,0-1.2-0.1-2.2-0.1c-1.6,0-3.6,0.3-5.9,0.3
		c-3.1,0-4.2-1.1-4.2-3.7c0-1.6,0.2-3.3,0.2-5V94.3c0-1.5-0.2-3.1-0.2-4.8c0-1.2,0.3-5.2,0.3-12.2c0-1.1-0.1-1.6-0.7-1.8
		c-2.4-0.6-5,0.1-7.3-0.8c-1.6-0.7-1.7-3.6-1.7-9.7c0-3.4,1.4-5,4.4-5c8.2,0,12.7-0.2,13.5-0.2c2.8,0,5.1,0.3,7.1,0.3
		c1.8,0,3.5-0.2,5-0.2c3.6,0,4.2,0.6,4.2,4.6v1.1c0,6.4-0.1,9.6-3.3,9.6h-3.1c-2.5,0-3.2,0.7-3.2,2.2v0.8v0.7L58.1,116.9z"/>
	<path class="st0" d="M74.2,77.9c0-2.2,0.2-5.2,0.2-9c0-2.1-0.3-3.9-0.3-5.7c0-3,1.1-3.6,4.8-3.6h8.7c3.2,0,4.4,0.7,5.6,6l4.5,19.8
		h1.1l5.4-22.3c0.7-2.5,1.7-3.5,3.6-3.5h10.3c3.4,0,3.8,1.5,3.8,6c0,4-0.4,10.3-0.4,18.7c0,6,0.2,15.5,0.2,28.5
		c0,5.2,0.2,8.1,0.2,8.7c0,3.9-0.6,5.4-2.9,5.4h-8.4c-2.6,0-3.4-1.4-3.4-4.9v-17.9c0-5.9-0.2-10.2-0.4-12.9h-1.4
		c-2.5,12.1-4.8,18.3-7,18.3c-2.4,0-4.5-6.3-8.5-18.3h-1.1V95V99v19.6c0,1.6-0.2,3.3-0.2,5.2c0,2.7-0.4,3.2-5,3.2h-6.1
		c-2.3,0-3.5-1.8-3.5-5.3v-3.2V77.9z"/>
	<path class="st0" d="M152.1,59.7c3.9,0,5.2,1,5.2,5c0,0.8-0.1,2.2-0.1,4c0,0.9,0.2,2.1,0.2,3.5c0,2-0.4,3.1-1.9,3.9
		c-0.6,0.3-1.4,0.3-2.4,0.3c-1,0-2.1,0-3.3,0.4c-4.8,1.5-5.1,6.2-5.1,16.8c0,11.9,0.5,17.8,6.4,17.8c1.5,0,2.8-0.2,3.7-0.2
		c1.7,0,2.7,1.3,2.7,3.8c0,4.5,0.2,6.8,0.2,7.3c0,3.9-1.8,5-6.5,5c-8,0-13.3-1-17.7-7.4c-4.3-6.3-5.2-15.1-5.2-27.6
		C128.3,68.3,133.2,59.7,152.1,59.7z"/>
</g>
</svg>
