<?xml version="1.0" encoding="utf-8"?>
<!-- Generator: Adobe Illustrator 24.0.2, SVG Export Plug-In . SVG Version: 6.00 Build 0)  -->
<svg version="1.1" id="Ebene_1" xmlns="http://www.w3.org/2000/svg" xmlns:xlink="http://www.w3.org/1999/xlink" x="0px" y="0px"
	 viewBox="0 0 260 189" style="enable-background:new 0 0 260 189;" xml:space="preserve">
<style type="text/css">
	.st0{fill:#FFFFFF;}
</style>
<g>
	<g>
		<path class="st0" d="M126.2,85.9c0,8.5,0,17,0,25.5c0,4.5,7,4.5,7,0c0-8.5,0-17,0-25.5C133.2,81.4,126.2,81.4,126.2,85.9
			L126.2,85.9z"/>
	</g>
</g>
<g>
	<g>
		<path class="st0" d="M116.9,102.2c8.5,0,17,0,25.5,0c4.5,0,4.5-7,0-7c-8.5,0-17,0-25.5,0C112.4,95.2,112.4,102.2,116.9,102.2
			L116.9,102.2z"/>
	</g>
</g>
<g>
	<path class="st0" d="M116.8,45.7L94.2,27.1H42.9v125.3h174.2V45.7H116.8z M129.9,128.6c-16.3,0-29.5-13.2-29.5-29.5
		c0-16.3,13.2-29.5,29.5-29.5c16.3,0,29.5,13.2,29.5,29.5C159.5,115.4,146.3,128.6,129.9,128.6z"/>
</g>
</svg>
