<?xml version="1.0" encoding="UTF-8" standalone="no"?>
<svg
   xmlns:dc="http://purl.org/dc/elements/1.1/"
   xmlns:cc="http://creativecommons.org/ns#"
   xmlns:rdf="http://www.w3.org/1999/02/22-rdf-syntax-ns#"
   xmlns:svg="http://www.w3.org/2000/svg"
   xmlns="http://www.w3.org/2000/svg"
   xmlns:sodipodi="http://sodipodi.sourceforge.net/DTD/sodipodi-0.dtd"
   xmlns:inkscape="http://www.inkscape.org/namespaces/inkscape"
   version="1.1"
   x="0px"
   y="0px"
   width="260px"
   height="189px"
   viewBox="-42.912 -27.073 260 189"
   overflow="visible"
   enable-background="new -42.912 -27.073 260 189"
   xml:space="preserve"
   id="svg18"
   sodipodi:docname="upload.svg"
   inkscape:version="0.92.3 (2405546, 2018-03-11)"><metadata
   id="metadata24"><rdf:RDF><cc:Work
       rdf:about=""><dc:format>image/svg+xml</dc:format><dc:type
         rdf:resource="http://purl.org/dc/dcmitype/StillImage" /></cc:Work></rdf:RDF></metadata><defs
   id="defs22" /><sodipodi:namedview
   pagecolor="#ffffff"
   bordercolor="#666666"
   borderopacity="1"
   objecttolerance="10"
   gridtolerance="10"
   guidetolerance="10"
   inkscape:pageopacity="0"
   inkscape:pageshadow="2"
   inkscape:window-width="1366"
   inkscape:window-height="739"
   id="namedview20"
   showgrid="false"
   inkscape:zoom="1.7658963"
   inkscape:cx="102.4812"
   inkscape:cy="88.775966"
   inkscape:window-x="0"
   inkscape:window-y="0"
   inkscape:window-maximized="1"
   inkscape:current-layer="svg18" />
<g
   id="g6"
   style="fill:#ffffff;fill-opacity:1">
	<g
   id="g4"
   style="fill:#ffffff;fill-opacity:1">
		<path
   fill="#BCAAA4"
   d="M83.244,58.862c0,8.491,0,16.981,0,25.472c0,4.514,7,4.514,7,0c0-8.491,0-16.981,0-25.472    C90.244,54.348,83.244,54.348,83.244,58.862L83.244,58.862z"
   id="path2"
   style="fill:#ffffff;fill-opacity:1" />
	</g>
</g>
<g
   id="g12"
   style="fill:#ffffff;fill-opacity:1">
	<g
   id="g10"
   style="fill:#ffffff;fill-opacity:1">
		<path
   fill="#BCAAA4"
   d="M74.008,75.098c8.491,0,16.982,0,25.473,0c4.514,0,4.514-7,0-7c-8.491,0-16.982,0-25.473,0    C69.494,68.098,69.494,75.098,74.008,75.098L74.008,75.098z"
   id="path8"
   style="fill:#ffffff;fill-opacity:1" />
	</g>
</g>
<g
   id="g16"
   style="fill:#ffffff;fill-opacity:1">
	<path
   fill="#BCAAA4"
   d="M73.893,18.588L51.289,0H0v125.297h174.176V18.588H73.893z M87.031,101.545   c-16.318,0-29.546-13.228-29.546-29.545c0-16.318,13.228-29.546,29.546-29.546c16.317,0,29.545,13.228,29.545,29.546   C116.576,88.317,103.349,101.545,87.031,101.545z"
   id="path14"
   style="fill:#ffffff;fill-opacity:1" />
</g>
</svg>